<?xml version="1.0" standalone="no"?><svg data-noselect="" 
  viewBox="126.76404571533001 168.0321714893 388 291.29174208492" 
  width="388" 
  height="291.29174208492" 
  ref="svg_canvas" 
  preserveAspectRatio="none" 
  version="1.1" xmlns="http://www.w3.org/2000/svg" 
  style="background: #ffffff;">
    <defs></defs>
    <g id="shape_W7YDZ35Q8m" class="brand_name"  ref="shape_W7YDZ35Q8m" key="shape_W7YDZ35Q8m" transform="translate(202.52809143066003,111.2349152832) rotate(0,206.27399295228,203.822) scale(1,1)" style="cursor:move;display:inline;opacity:1;" filter="">
            <g style="display:inline"><svg xmlns="http://www.w3.org/2000/svg" version="1.1" xmlns:xlink="http://www.w3.org/1999/xlink" width="393" height="407.644" viewBox="0 0 393 407.644" preserveAspectRatio="none" data-parent="shape_W7YDZ35Q8m"><rect fill="rgba(0,0,0,0)" width="161" height="58" x="58" y="174.822"></rect><g data-width="160.07999999999998" transform="translate(58, 0)"><path d="M38.74-41.99L38.11-39.38L52.14-39.38L52.14-34.74L36.95-34.74L36.19-31.49L51.39-31.49L51.39-30.91L51.39-26.85L51.39-12.18Q51.39-6.73 46.52-6.73L46.52-6.73L45.12-6.73L41.06-6.73L42.80-11.08L43.44-11.08Q44.14-11.08 44.63-11.63Q45.12-12.18 45.12-12.93L45.12-12.93L45.12-13.40L35.84-13.40L35.84-6.73L29.58-6.73L29.58-21.69L26.85-21.69L30.10-34.74L27.61-34.74L27.61-39.38L31.20-39.38L31.84-41.99L38.74-41.99ZM35.84-17.75L45.12-17.75L45.12-20.18L35.84-20.18L35.84-17.75ZM45.12-24.59L45.12-26.85L35.84-26.85L35.84-24.59L45.12-24.59ZM24.19-20.42L27.14-20.42L25.35-10.96L29.58-5.45L52.14-5.45L50.52-0.12L26.51-0.12L23.84-3.19L23.26-0.12L17.69-0.12L20.76-15.08L18.04-15.08L18.10-15.20L20.88-27.90L18.04-27.90L18.04-33.18L26.22-33.18L26.97-33.18L24.19-20.42ZM26.85-34.92L20.36-34.92L18.21-41.99L24.71-41.99L26.85-34.92ZM14.44-2.26L8.70-2.26L11.77-18.62L8.53-18.62L11.43-36.13L7.77-36.13L7.77 0.17L1.16 0.17L1.16-41.88L5.28-41.88L7.77-41.88L18.27-41.88L15.14-23.37L18.44-23.37L14.44-2.26Z" transform="translate(0 223.822) skewX(-14)" fill="#246fdd" stroke="#246fdd" stroke-width="0.097" data-glyph-w="53.36" data-glyph-h="58" data-glyph-ascender="49.822" data-glyph-descender="-8.178"></path><path d="M1.28-18.39L24.19-18.39L24.19-23.32L3.94-23.32L3.94-28.71L24.19-28.71L24.19-34.80L2.61-33.70L2.61-39.09L50.29-41.47L50.29-36.08L32.02-35.21L32.02-28.71L48.66-28.71L48.66-23.32L32.02-23.32L32.02-18.39L52.03-18.39L52.03-12.99L32.02-12.99L32.02-5.92Q32.02-3.60 30.39-1.97Q28.77-0.35 26.45-0.35L26.45-0.35L17.28-0.35L19.84-5.74L22.91-5.74Q23.43-5.74 23.81-6.12Q24.19-6.50 24.19-7.08L24.19-7.08L24.19-12.99L1.28-12.99L1.28-18.39Z" transform="translate(53.36 223.822) skewX(-14)" fill="#246fdd" stroke="#246fdd" stroke-width="0.097" data-glyph-w="53.36" data-glyph-h="58" data-glyph-ascender="49.822" data-glyph-descender="-8.178"></path><path d="M44.89-41.82L50.34-41.82L52.14-41.82L48.20-27.03L40.95-27.03L43.44-36.42L1.22-36.42L1.22-41.82L44.89-41.82ZM27.72-10.61L35.26-10.61L52.14 0.06L39.09 0.06L25.52-9.05L12.93 0.06L1.22 0.06L18.44-12.47L2.78-12.47L2.78-17.86L23.55-17.86L23.55-33.47L31.84-33.47L31.84-17.86L50.34-17.86L50.34-12.47L30.22-12.47L27.72-10.61ZM9.51-20.24L4.18-27.67L8.35-27.67L4.18-33.47L13.80-33.47L19.14-26.04L15.02-26.04L19.14-20.24L9.51-20.24Z" transform="translate(106.72 223.822) skewX(-14)" fill="#246fdd" stroke="#246fdd" stroke-width="0.097" data-glyph-w="53.36" data-glyph-h="58" data-glyph-ascender="49.822" data-glyph-descender="-8.178"></path></g></svg></g>
        </g><g id="shape_KGTd7uuhMV" class="brand_slogan"  ref="shape_KGTd7uuhMV" key="shape_KGTd7uuhMV" transform="translate(247.24821472167997,278.37664794922) rotate(0,129.63989257812,92.274169921875) scale(1,1)" style="cursor:move;display:inline;opacity:1;" filter="">
            <g style="display:inline"><svg xmlns="http://www.w3.org/2000/svg" version="1.1" xmlns:xlink="http://www.w3.org/1999/xlink" width="246" height="176.89453125" viewBox="0 0 246 176.89453125" preserveAspectRatio="none" data-parent="shape_KGTd7uuhMV"><rect fill="rgba(0,0,0,0)" width="146" height="25" x="25" y="75.947265625"></rect><g data-width="145.4615234375" transform="translate(25, 0)"><path d="M9.01-18.44L3.09-18.44L3.09-12.84L9.01-12.84Q10.17-12.84 10.99-13.66L10.99-13.66Q11.80-14.48 11.80-15.64L11.80-15.64Q11.80-16.81 10.99-17.63L10.99-17.63Q10.17-18.44 9.01-18.44L9.01-18.44ZM9.63-10.97L3.09-10.97L3.09-4.75L9.63-4.75Q10.91-4.75 11.83-5.65L11.83-5.65Q12.74-6.57 12.74-7.86L12.74-7.86Q12.74-9.14 11.83-10.06L11.83-10.06Q10.91-10.97 9.63-10.97L9.63-10.97ZM9.63-2.88L1.22-2.88L1.22-20.31L9.01-20.31Q10.94-20.31 12.30-18.95L12.30-18.95Q13.67-17.58 13.67-15.64L13.67-15.64Q13.67-13.71 12.30-12.34L12.30-12.34Q12.22-12.26 12.13-12.18L12.13-12.18Q12.67-11.85 13.15-11.38L13.15-11.38Q14.61-9.92 14.61-7.86L14.61-7.86Q14.61-5.80 13.15-4.33L13.15-4.33Q11.69-2.88 9.63-2.88L9.63-2.88Z" transform="translate(0 95.947265625) " fill="rgb(36, 111, 221)" stroke="rgb(36, 111, 221)" stroke-width="0.042" data-glyph-w="15.34423828125" data-glyph-h="26.0498046875" data-glyph-ascender="20.947265625" data-glyph-descender="-5.1025390625"></path><path d="M8.07-2.56Q10.91-2.56 12.92-4.21L12.92-4.21Q14.92-5.85 14.92-8.17L14.92-8.17L14.92-20.31L13.05-20.31L13.05-8.17Q13.05-6.62 11.60-5.53L11.60-5.53Q10.13-4.43 8.07-4.43L8.07-4.43Q6.01-4.43 4.55-5.53L4.55-5.53Q3.09-6.62 3.09-8.17L3.09-8.17L3.09-20.31L1.22-20.31L1.22-8.17Q1.22-5.85 3.22-4.21L3.22-4.21Q5.24-2.56 8.07-2.56L8.07-2.56Z" transform="translate(15.34423828125 95.947265625) " fill="rgb(36, 111, 221)" stroke="rgb(36, 111, 221)" stroke-width="0.042" data-glyph-w="16.1376953125" data-glyph-h="26.0498046875" data-glyph-ascender="20.947265625" data-glyph-descender="-5.1025390625"></path><path d="M8.03-10.34L8.03-2.88L9.90-2.88L9.90-10.36L17.68-20.31L15.31-20.31L8.96-12.18L2.61-20.31L0.24-20.31L8.03-10.34Z" transform="translate(31.48193359375 95.947265625) " fill="rgb(36, 111, 221)" stroke="rgb(36, 111, 221)" stroke-width="0.042" data-glyph-w="17.919921875" data-glyph-h="26.0498046875" data-glyph-ascender="20.947265625" data-glyph-descender="-5.1025390625"></path><path d="" transform="translate(49.40185546875 95.947265625) " fill="rgb(36, 111, 221)" stroke="rgb(36, 111, 221)" stroke-width="0.042" data-glyph-w="9.950000000000001" data-glyph-h="25" data-glyph-ascender="22" data-glyph-descender="-3"></path><path d="M3.09-2.88L3.09-20.31L1.22-20.31L1.22-2.88L3.09-2.88Z" transform="translate(59.35185546875 95.947265625) " fill="rgb(36, 111, 221)" stroke="rgb(36, 111, 221)" stroke-width="0.042" data-glyph-w="4.30908203125" data-glyph-h="26.0498046875" data-glyph-ascender="20.947265625" data-glyph-descender="-5.1025390625"></path><path d="M6.34-2.88L6.34-18.44L0.73-18.44L0.73-20.31L13.81-20.31L13.81-18.44L8.20-18.44L8.20-2.88L6.34-2.88Z" transform="translate(63.6609375 95.947265625) " fill="rgb(36, 111, 221)" stroke="rgb(36, 111, 221)" stroke-width="0.042" data-glyph-w="14.53857421875" data-glyph-h="26.0498046875" data-glyph-ascender="20.947265625" data-glyph-descender="-5.1025390625"></path><path d="" transform="translate(78.19951171875 95.947265625) " fill="rgb(36, 111, 221)" stroke="rgb(36, 111, 221)" stroke-width="0.042" data-glyph-w="9.950000000000001" data-glyph-h="25" data-glyph-ascender="22" data-glyph-descender="-3"></path><path d="M13.05-6.21L13.05-20.31L14.92-20.31L14.92-2.88L13.13-2.88L3.09-16.98L3.09-2.88L1.22-2.88L1.22-20.31L3.00-20.31L13.05-6.21Z" transform="translate(88.14951171875 95.947265625) " fill="rgb(36, 111, 221)" stroke="rgb(36, 111, 221)" stroke-width="0.042" data-glyph-w="16.1376953125" data-glyph-h="26.0498046875" data-glyph-ascender="20.947265625" data-glyph-descender="-5.1025390625"></path><path d="M9.77-20.63Q13.50-20.63 16.15-17.98L16.15-17.98Q18.79-15.33 18.79-11.60L18.79-11.60Q18.79-7.85 16.15-5.21L16.15-5.21Q13.50-2.56 9.77-2.56L9.77-2.56Q6.02-2.56 3.38-5.21L3.38-5.21Q0.73-7.85 0.73-11.60L0.73-11.60Q0.73-15.33 3.38-17.98L3.38-17.98Q6.02-20.63 9.77-20.63L9.77-20.63ZM9.77-18.75L9.77-18.75Q6.80-18.75 4.70-16.66L4.70-16.66Q2.60-14.56 2.60-11.60L2.60-11.60Q2.60-8.63 4.70-6.53L4.70-6.53Q6.80-4.43 9.77-4.43L9.77-4.43Q12.73-4.43 14.83-6.53L14.83-6.53Q16.92-8.63 16.92-11.60L16.92-11.60Q16.92-14.56 14.83-16.66L14.83-16.66Q12.73-18.75 9.77-18.75Z" transform="translate(104.28720703125 95.947265625) " fill="rgb(36, 111, 221)" stroke="rgb(36, 111, 221)" stroke-width="0.042" data-glyph-w="19.51904296875" data-glyph-h="26.0498046875" data-glyph-ascender="20.947265625" data-glyph-descender="-5.1025390625"></path><path d="M11.78-20.31L9.88-20.31L6.13-6.46L2.19-20.31L0.24-20.31L5.21-2.88L7.10-2.88L10.83-16.67L14.56-2.88L16.46-2.88L21.41-20.31L19.47-20.31L15.53-6.46L11.78-20.31Z" transform="translate(123.80625 95.947265625) " fill="rgb(36, 111, 221)" stroke="rgb(36, 111, 221)" stroke-width="0.042" data-glyph-w="21.6552734375" data-glyph-h="26.0498046875" data-glyph-ascender="20.947265625" data-glyph-descender="-5.1025390625"></path></g></svg></g>
        </g><g id="shape_AjwXCJgVSQ" class=""  ref="shape_AjwXCJgVSQ" key="shape_AjwXCJgVSQ" transform="translate(220,248.0321714893) rotate(0,80,49.967828510696) scale(1,1)" style="cursor:move;display:inline;opacity:1;" filter="">
            <g style="display:inline"><rect fill="rgba(0,0,0,0)" width="180" height="119.935657021393" x="-10" y="-10"></rect><svg version="1.1" id="图层_1" xmlns="http://www.w3.org/2000/svg" xmlns:xlink="http://www.w3.org/1999/xlink" x="0px" y="0px" width="160" height="99.935657021393" viewBox="10.189589500427246 43.904483795166016 179.6204071044922 112.19052124023438" enable-background="new 0 0 200 200" xml:space="preserve" preserveAspectRatio="none" class="style-removed" data-parent="shape_AjwXCJgVSQ">
<g>
	<path fill="#246fdd" d="M106.321,89.494c0,0,21.712-23.689,49.111-19.623c20.564,3.052,29.926,14.137,34.378,20.14H176.37
		c0,0-9.943-9.084-23.78-10.899C140.013,77.462,129.843,78.121,106.321,89.494z" stroke-width="0"></path>
	<path fill="#246fdd" d="M147.161,71.716c0,0-5.801-22.574-33.028-27.054S61.92,55.92,43.31,82.687l22.517-4.021
		c0,0,19.354-29.195,47.101-24.24c16.083,2.872,24.699,10.109,27.916,18.496L147.161,71.716z" stroke-width="0"></path>
	<path fill="#24dd7f" d="M62.38,83.893c0,0-46.698,7.782-51.696,38.255c-4.136,25.216,18.611,33.947,33.43,33.947
		c18.036,0,112.698,0,112.698,0l1.206-5.687c0,0-71.397,0.324-101.38,0c-15.968-0.172-28.147-4.996-28.147-22.574
		c0-14.992,12.867-26.502,29.065-32.034L62.38,83.893z" stroke-width="0"></path>
</g>
</svg></g>
        </g>
  </svg>